<svg width="86" height="54" viewBox="0 0 86 54" fill="none" xmlns="http://www.w3.org/2000/svg">
<path d="M85.4142 16.4142C86.1953 15.6332 86.1953 14.3668 85.4142 13.5858L72.6863 0.857864C71.9052 0.0768156 70.6389 0.0768156 69.8579 0.857864C69.0768 1.63891 69.0768 2.90524 69.8579 3.68629L81.1716 15L69.8579 26.3137C69.0768 27.0948 69.0768 28.3611 69.8579 29.1421C70.6389 29.9232 71.9052 29.9232 72.6863 29.1421L85.4142 16.4142ZM2 17L84 17V13L2 13L2 17Z" fill="#175665"/>
<path d="M0.585777 37.5858C-0.195267 38.3668 -0.195267 39.6332 0.585777 40.4142L13.3137 53.1421C14.0947 53.9232 15.3611 53.9232 16.1421 53.1421C16.9232 52.3611 16.9232 51.0948 16.1421 50.3137L4.82842 39L16.1421 27.6863C16.9232 26.9052 16.9232 25.6389 16.1421 24.8579C15.3611 24.0768 14.0947 24.0768 13.3137 24.8579L0.585777 37.5858ZM83.9939 37L1.99999 37V41L83.9939 41V37Z" fill="#175665"/>
</svg>
