<svg width="112" height="112" xmlns="http://www.w3.org/2000/svg">
 <title>Artboard 57 copy 34</title>

 <g>
  <title>background</title>
  <rect fill="none" id="canvas_background" height="114" width="114" y="-1" x="-1"/>
 </g>
 <g>
  <title>Layer 1</title>
  <g id="svg_1">
   <path id="svg_2" fill=" #055a6e" d="m56,3.37a53.63,53.63 0 1 0 53.63,53.63a53.69,53.69 0 0 0 -53.63,-53.63zm0,100.26a46.63,46.63 0 1 1 46.63,-46.63a46.69,46.69 0 0 1 -46.63,46.63z"/>
   <polygon id="svg_3" fill=" #055a6e" points="53.279998779296875,63.61000061035156 60.61000061035156,63.61000061035156 62.220001220703125,40.25 62.599998474121094,30.089996337890625 51.29999923706055,30.089996337890625 51.68000030517578,40.25 53.279998779296875,63.61000061035156 "/>
   <path id="svg_4" fill=" #055a6e" d="m57,68a7.07,7.07 0 1 0 6.79,7.1a6.79,6.79 0 0 0 -6.79,-7.1z"/>
  </g>
  <g id="svg_20">
   <g transform="matrix(0.05444444490803612,0,0,0.05444444490803612,0,0) " id="svg_18">
    <title transform="translate(972.5714111328125,0) translate(0,948.5714111328125) ">background</title>
    <rect x="971.571411" y="947.571411" width="114" height="162" id="svg_16" fill="none"/>
   </g>
   <g transform="matrix(0.05444444490803612,0,0,0.05444444490803612,0,0) " id="svg_19">
    <title transform="translate(972.5714111328125,0) translate(0,948.5714111328125) ">Layer 1</title>
    <g id="svg_12">
     <path d="m1028.571411,999.941411a53.63,53.63 0 1 0 53.63,53.63a53.69,53.69 0 0 0 -53.63,-53.63zm0,100.26a46.63,46.63 0 1 1 46.63,-46.63a46.69,46.69 0 0 1 -46.63,46.63z" fill=" #055a6e" id="svg_15"/>
     <polygon points="1025.8514099121094,1060.181396484375 1033.181411743164,1060.181396484375 1034.7914123535156,1036.8214111328125 1035.1714096069336,1026.661376953125 1023.871410369873,1026.661376953125 1024.2514114379883,1036.8214111328125 1025.8514099121094,1060.181396484375 " fill=" #055a6e" id="svg_14"/>
     <path d="m1029.571411,1064.571411a7.07,7.07 0 1 0 6.79,7.1a6.79,6.79 0 0 0 -6.79,-7.1z" fill=" #055a6e" id="svg_13"/>
    </g>
   </g>
  </g>
 </g>
</svg>