<svg xmlns="http://www.w3.org/2000/svg" width="112" height="112" viewBox="0 0 112 112">
  <title>Artboard 57 copy 34</title>
  <g>
    <path d="M56,2.37A53.63,53.63,0,1,0,109.63,56,53.69,53.69,0,0,0,56,2.37Zm0,100.26A46.63,46.63,0,1,1,102.63,56,46.69,46.69,0,0,1,56,102.63Z" style="fill: #055a6e"/>
    <polygon points="53.28 62.61 60.61 62.61 62.22 39.25 62.6 29.09 51.3 29.09 51.68 39.25 53.28 62.61" style="fill: #055a6e"/>
    <path d="M57,67a7.07,7.07,0,1,0,6.79,7.1A6.79,6.79,0,0,0,57,67Z" style="fill: #055a6e"/>
  </g>
</svg>
