<svg width="147" height="87" viewBox="0 0 147 87" fill="none" xmlns="http://www.w3.org/2000/svg">
<g clip-path="url(#clip0)">
<path d="M76.7 40.84C73.7447 40.838 70.8552 41.7125 68.3971 43.353C65.9389 44.9934 64.0224 47.326 62.8901 50.0557C61.7578 52.7855 61.4605 55.7897 62.0359 58.6885C62.6112 61.5872 64.0333 64.2502 66.1223 66.3406C68.2113 68.431 70.8733 69.8549 73.7717 70.4322C76.67 71.0094 79.6745 70.7142 82.405 69.5837C85.1355 68.4532 87.4694 66.5383 89.1115 64.0812C90.7535 61.6241 91.63 58.7352 91.63 55.78C91.6142 51.8242 90.0365 48.0348 87.2403 45.2368C84.4441 42.4387 80.6557 40.8584 76.7 40.84ZM76.7 65.72C74.7336 65.7219 72.8109 65.1407 71.1749 64.0496C69.539 62.9586 68.2634 61.4069 67.5095 59.5908C66.7557 57.7747 66.5574 55.7757 66.9398 53.8469C67.3222 51.9181 68.2681 50.146 69.6578 48.7549C71.0476 47.3637 72.8187 46.416 74.7471 46.0317C76.6756 45.6474 78.6747 45.8436 80.4916 46.5957C82.3084 47.3477 83.8615 48.6217 84.9541 50.2566C86.0468 51.8914 86.63 53.8136 86.63 55.78C86.6274 58.4137 85.5806 60.9389 83.7193 62.8022C81.8579 64.6654 79.3337 65.7147 76.7 65.72Z" fill="#333333"/>
<path d="M118.7 0.5C111.957 0.510136 105.459 3.03302 100.476 7.57611C95.493 12.1192 92.3818 18.3564 91.75 25.07H38.11C36.5187 25.07 34.9926 25.7021 33.8674 26.8274C32.7421 27.9526 32.11 29.4787 32.11 31.07V42.17H13C12.337 42.17 11.7011 42.4334 11.2322 42.9022C10.7634 43.3711 10.5 44.007 10.5 44.67C10.5 45.333 10.7634 45.9689 11.2322 46.4378C11.7011 46.9066 12.337 47.17 13 47.17H32.12V54.2H3C2.33696 54.2 1.70107 54.4634 1.23223 54.9322C0.763392 55.4011 0.5 56.037 0.5 56.7C0.5 57.363 0.763392 57.9989 1.23223 58.4678C1.70107 58.9366 2.33696 59.2 3 59.2H32.12V65.9H13C12.337 65.9 11.7011 66.1634 11.2322 66.6322C10.7634 67.1011 10.5 67.737 10.5 68.4C10.5 69.063 10.7634 69.6989 11.2322 70.1678C11.7011 70.6366 12.337 70.9 13 70.9H32.12V80.5C32.12 82.0913 32.7521 83.6174 33.8774 84.7426C35.0026 85.8679 36.5287 86.5 38.12 86.5H115.29C116.881 86.5 118.407 85.8679 119.533 84.7426C120.658 83.6174 121.29 82.0913 121.29 80.5V54.5C128.182 53.7974 134.543 50.479 139.062 45.2279C143.582 39.9768 145.916 33.1928 145.584 26.2727C145.252 19.3526 142.279 12.8231 137.278 8.02864C132.277 3.23419 125.628 0.539717 118.7 0.5ZM37.12 31.05C37.12 30.7848 37.2254 30.5304 37.4129 30.3429C37.6004 30.1554 37.8548 30.05 38.12 30.05H51.32C50.7817 33.6248 49.1125 36.9333 46.5571 39.4905C44.0017 42.0476 40.6945 43.7191 37.12 44.26V31.05ZM38.12 81.49C37.8548 81.49 37.6004 81.3846 37.4129 81.1971C37.2254 81.0096 37.12 80.7552 37.12 80.49V67.3C40.691 67.8387 43.9955 69.5072 46.5492 72.0608C49.1028 74.6145 50.7713 77.919 51.31 81.49H38.12ZM116.28 80.49C116.28 80.7552 116.175 81.0096 115.987 81.1971C115.8 81.3846 115.545 81.49 115.28 81.49H102.08C102.617 77.9184 104.285 74.613 106.839 72.0591C109.393 69.5052 112.698 67.8372 116.27 67.3L116.28 80.49ZM116.28 62.23C111.365 62.7949 106.785 65.0052 103.285 68.5017C99.785 71.9982 97.57 76.5755 97 81.49H56.37C55.7992 76.5819 53.5876 72.0103 50.0937 68.5163C46.5997 65.0224 42.0281 62.8108 37.12 62.24V49.32C42.0275 48.7475 46.5981 46.5353 50.0917 43.0417C53.5853 39.5481 55.7975 34.9775 56.37 30.07H91.75C92.3441 36.3653 95.1202 42.255 99.5978 46.7198C104.075 51.1847 109.973 53.9439 116.27 54.52L116.28 62.23ZM121.06 49.5H120.59L119.91 49.55H119.16H118.75C117.925 49.5491 117.1 49.5023 116.28 49.41C111.325 48.857 106.703 46.6456 103.163 43.1349C99.6232 39.6241 97.3738 35.02 96.78 30.07H96.85C96.65 28.4093 96.65 26.7307 96.85 25.07H96.78C97.2521 20.941 98.8809 17.0292 101.479 13.7854C104.077 10.5416 107.538 8.09771 111.465 6.73515C115.391 5.37259 119.622 5.14683 123.671 6.08387C127.72 7.02092 131.422 9.08265 134.35 12.0316C137.279 14.9805 139.315 18.6967 140.223 22.7521C141.132 26.8074 140.877 31.037 139.487 34.9537C138.097 38.8703 135.629 42.3146 132.367 44.8899C129.105 47.4652 125.182 49.0667 121.05 49.51L121.06 49.5Z" fill="#333333"/>
<path d="M135.91 25.34C135.393 25.3381 134.887 25.4891 134.456 25.7741C134.025 26.059 133.687 26.4652 133.486 26.9414C133.285 27.4176 133.23 27.9427 133.327 28.4504C133.423 28.9582 133.668 29.426 134.03 29.7949C134.392 30.1639 134.855 30.4175 135.361 30.5239C135.867 30.6303 136.393 30.5846 136.873 30.3928C137.353 30.2009 137.765 29.8713 138.058 29.4455C138.351 29.0198 138.512 28.5168 138.52 28C138.527 27.653 138.464 27.3083 138.336 26.9858C138.208 26.6634 138.016 26.3697 137.773 26.122C137.53 25.8743 137.24 25.6776 136.92 25.5433C136.6 25.409 136.257 25.3399 135.91 25.34Z" fill="#333333"/>
<path d="M118.75 42C118.234 42 117.729 42.1531 117.3 42.4399C116.871 42.7267 116.536 43.1343 116.339 43.6112C116.141 44.0881 116.089 44.6129 116.19 45.1192C116.291 45.6255 116.539 46.0905 116.904 46.4555C117.269 46.8206 117.734 47.0691 118.241 47.1698C118.747 47.2706 119.272 47.2189 119.749 47.0213C120.226 46.8238 120.633 46.4893 120.92 46.06C121.207 45.6308 121.36 45.1262 121.36 44.61C121.36 43.9178 121.085 43.2539 120.595 42.7645C120.106 42.275 119.442 42 118.75 42Z" fill="#333333"/>
<path d="M120.2 25.21V19.48C120.2 19.0822 120.042 18.7006 119.761 18.4193C119.479 18.138 119.098 17.98 118.7 17.98C118.302 17.98 117.921 18.138 117.639 18.4193C117.358 18.7006 117.2 19.0822 117.2 19.48V25.26C116.634 25.5997 116.195 26.1168 115.953 26.731C115.71 27.3453 115.677 28.0224 115.859 28.6573C116.041 29.2923 116.427 29.8496 116.957 30.2428C117.488 30.636 118.133 30.8432 118.793 30.8322C119.454 30.8212 120.092 30.5926 120.609 30.1819C121.126 29.7712 121.493 29.2014 121.654 28.5608C121.814 27.9201 121.758 27.2445 121.496 26.6387C121.233 26.0328 120.777 25.5306 120.2 25.21Z" fill="#333333"/>
<path d="M116.6 14.77C116.963 15.1851 117.448 15.4742 117.986 15.5955C118.524 15.7168 119.086 15.6641 119.592 15.4449C120.098 15.2257 120.521 14.8514 120.8 14.3761C121.079 13.9008 121.2 13.349 121.145 12.8005C121.09 12.252 120.862 11.7351 120.495 11.3245C120.127 10.9139 119.638 10.6308 119.099 10.5161C118.56 10.4014 117.998 10.4611 117.495 10.6865C116.992 10.9119 116.573 11.2913 116.3 11.77C112.829 12.3233 109.63 13.9865 107.184 16.5105C104.738 19.0344 103.175 22.2832 102.73 25.77C102.237 26.0604 101.854 26.5053 101.639 27.0357C101.425 27.5662 101.392 28.1525 101.544 28.7038C101.697 29.2552 102.027 29.7408 102.484 30.0854C102.94 30.4301 103.498 30.6144 104.07 30.61C104.611 30.6153 105.14 30.4518 105.584 30.1423C106.027 29.8327 106.363 29.3925 106.545 28.8829C106.726 28.3734 106.745 27.8199 106.597 27.2996C106.449 26.7792 106.142 26.318 105.72 25.98C106.116 23.2015 107.383 20.62 109.337 18.606C111.292 16.592 113.835 15.2491 116.6 14.77Z" fill="#333333"/>
</g>
<defs>
<clipPath id="clip0">
<rect width="146.29" height="86.99" fill="white"/>
</clipPath>
</defs>
</svg>
