<svg id="Layer_1" data-name="Layer 1" xmlns="http://www.w3.org/2000/svg" width="253.87" height="160.54" viewBox="0 0 253.87 160.54"><defs><style>.cls-1{fill:#c1d6d6;}.cls-2{fill:#f4fafc;}.cls-3{fill:#daeaea;}.cls-4{fill:#065b6f;}.cls-5{fill:#dae7e8;}.cls-6{fill:none;stroke:#dc3d54;stroke-miterlimit:10;stroke-width:5px;}</style></defs><title>Artboard 118</title><rect class="cls-1" x="12.2" y="29.69" width="214.86" height="115.29" rx="7.12"/><rect class="cls-2" x="25.31" y="16.7" width="214.86" height="115.29" rx="7.12"/><path class="cls-3" d="M233,132.49H32.43a7.63,7.63,0,0,1-7.62-7.62v-101a7.63,7.63,0,0,1,7.62-7.63H233a7.63,7.63,0,0,1,7.62,7.63v101A7.63,7.63,0,0,1,233,132.49ZM32.43,17.2a6.64,6.64,0,0,0-6.62,6.63v101a6.63,6.63,0,0,0,6.62,6.62H233a6.63,6.63,0,0,0,6.62-6.62v-101A6.64,6.64,0,0,0,233,17.2Z"/><path class="cls-4" d="M132.74,115.23a38.55,38.55,0,1,1,38.54-38.55A38.59,38.59,0,0,1,132.74,115.23Zm0-72.21A33.67,33.67,0,1,0,166.4,76.68,33.7,33.7,0,0,0,132.74,43Z"/><path class="cls-4" d="M131.14,95.63V90.89A13.63,13.63,0,0,1,124,88.83l1.12-3.15a12.48,12.48,0,0,0,6.76,2c3.34,0,5.59-1.93,5.59-4.6s-1.83-4.18-5.3-5.59c-4.79-1.88-7.75-4-7.75-8.12,0-3.9,2.77-6.86,7.09-7.56V57.09h2.91v4.55a12.65,12.65,0,0,1,6.1,1.64l-1.17,3.1a11.41,11.41,0,0,0-5.92-1.59c-3.61,0-5,2.16-5,4,0,2.45,1.73,3.67,5.82,5.36,4.83,2,7.28,4.41,7.28,8.59,0,3.71-2.59,7.18-7.42,8v4.88Z"/><path class="cls-4" d="M88.24,75.91H71.59a1.11,1.11,0,1,1,0-2.22H88.24a1.11,1.11,0,0,1,0,2.22Z"/><path class="cls-4" d="M193.86,75.91H177.22a1.11,1.11,0,1,1,0-2.22h16.64a1.11,1.11,0,0,1,0,2.22Z"/><path class="cls-5" d="M24.8,23.83v29.1A36.23,36.23,0,0,0,61,16.7H31.92A7.13,7.13,0,0,0,24.8,23.83Z"/><path class="cls-5" d="M239.61,124.87V95.77A36.23,36.23,0,0,0,203.38,132h29.11A7.12,7.12,0,0,0,239.61,124.87Z"/><path class="cls-5" d="M232.49,16.7H203.38a36.23,36.23,0,0,0,36.23,36.23V23.83A7.13,7.13,0,0,0,232.49,16.7Z"/><path class="cls-5" d="M31.92,132H61A36.22,36.22,0,0,0,24.8,95.77v29.1A7.12,7.12,0,0,0,31.92,132Z"/><rect class="cls-6" x="-45.66" y="-73.19" width="360.66" height="281.02" rx="5"/></svg>