<svg xmlns="http://www.w3.org/2000/svg" width="112" height="112" viewBox="0 0 112 112">
  <title>Artboard 57 copy 28</title>
  <g>
    <path d="M56,111.13A55.13,55.13,0,1,1,111.13,56,55.19,55.19,0,0,1,56,111.13ZM56,10.87A45.13,45.13,0,1,0,101.13,56,45.17,45.17,0,0,0,56,10.87Z" style="fill: #055a6e"/>
    <path d="M50.84,80.15a7.07,7.07,0,0,1,7-7.42,7.43,7.43,0,0,1,0,14.85A7.07,7.07,0,0,1,50.84,80.15Z" style="fill: #055a6e"/>
    <path d="M75.28,34.65A13.11,13.11,0,0,0,72.2,30a17.21,17.21,0,0,0-5.69-3.6A23.17,23.17,0,0,0,57.71,25a19.19,19.19,0,0,0-7.39,1.37,16.54,16.54,0,0,0-5.64,3.83A17.26,17.26,0,0,0,41,36a21.18,21.18,0,0,0-1.38,7.36H50.58A15.08,15.08,0,0,1,51,39.55a8.9,8.9,0,0,1,1.37-3,6.84,6.84,0,0,1,2.38-2.08,7.15,7.15,0,0,1,3.45-.78,6.38,6.38,0,0,1,4.64,1.63,6.78,6.78,0,0,1,1.68,5,6.19,6.19,0,0,1-.71,3.35,10.16,10.16,0,0,1-2,2.45c-.85.74-1.76,1.48-2.75,2.23A18.7,18.7,0,0,0,56.23,51a15.48,15.48,0,0,0-2.34,3.68A15.23,15.23,0,0,0,52.66,60v7.21H62.72V63.36h0V60.54a7.57,7.57,0,0,1,1.45-3.72,14.24,14.24,0,0,1,2.63-2.63c1-.77,2-1.54,3.16-2.31a15.33,15.33,0,0,0,3-2.78,14.6,14.6,0,0,0,2.3-3.94,15.8,15.8,0,0,0,.93-5.87A13.33,13.33,0,0,0,75.28,34.65Z" style="fill: #055a6e"/>
  </g>
</svg>
